/* XPM */
static char * laby_xpm[] = {
"33 32 25 1",
" 	c None",
".	c #000000",
"+	c #202020",
"@	c #BABABA",
"#	c #DEDEDE",
"$	c #101010",
"%	c #898989",
"&	c #999999",
"*	c #AAAAAA",
"=	c #757575",
"-	c #300000",
";	c #CE9965",
">	c #996530",
",	c #CE9900",
"'	c #CECECE",
")	c #653000",
"!	c #555555",
"~	c #656565",
"{	c #444444",
"]	c #FF9900",
"^	c #FFFF00",
"/	c #CE6500",
"(	c #653030",
"_	c #FFCE30",
":	c #996500",
".................................",
"................++++.............",
"...............+@@#@+............",
"........$$....+%@@@@&+...........",
".......$*=-...+@+++++............",
".......$==-...+@+;;;+............",
"........-+>-..+@+,'+@+...........",
"..........+>+++'@)>+@+++.........",
"...........+%%!+@+++++%%+........",
"..........+=~~!!+++!!$$$$$$$$$$$.",
"..........+~++{~++~%%$=%&%%=~!=$.",
".........+>+;+{!~~~%~$=!!!!!!!&$.",
".........+>;;++{{!!!~$~!!&'&!!%$.",
"........+>>;++++{{!~~$!!&'''&!%$.",
"........+#;+++++]^^++$~!'$'$'!=$.",
".....$$+**+.+//]]^^]]$!!&'$'&!~$.",
"....$(+==+.$_${{{{{{{+$!!&'&!=$..",
"....$$+**+$__$~%~~~%~!$!!'!'!=$..",
"......++++,:$%%~~~{{%~!$!!!!=+$..",
"........+$,:$$~!~~{~$$~$=!!!=$...",
"........+$:+''$$~~$$;;$~$=%=$....",
"........$__$++''$$$>;;>$!$$$.....",
"........$_$;>>++'*$$>>;$++.......",
".........+$;;$..++*%$$;$.........",
".........$;;>$....++%~$$$........",
".........{;;>$.....$++~{+........",
"........$={{{$.....$!=+++........",
".....++++*==!$$++++++!!**+++++...",
"...$++++**!!+$$$$$$$$+!===+++++++",
"...++++===!+$$$$$$$$$++++++++++++",
"....$$+++++$$$$$$$$$$$$$$$$$$....",
"......$$$$$......$$$$$$$$........"};
